<svg xmlns="http://www.w3.org/2000/svg" xmlns:xlink="http://www.w3.org/1999/xlink" viewBox="0 0 332.19 297.53"><defs><style>.cls-1{fill:url(#linear-gradient);}.cls-2{fill:url(#linear-gradient-2);}.cls-3{fill:url(#linear-gradient-3);}</style><linearGradient id="linear-gradient" x1="42" y1="241.47" x2="281.38" y2="62.65" gradientUnits="userSpaceOnUse"><stop offset="0" stop-color="#32bcad"/><stop offset="0.85" stop-color="#0089c0"/></linearGradient><linearGradient id="linear-gradient-2" x1="78.73" y1="290.64" x2="318.11" y2="111.82" xlink:href="#linear-gradient"/><linearGradient id="linear-gradient-3" x1="41.49" y1="240.79" x2="280.87" y2="61.97" xlink:href="#linear-gradient"/></defs><title>Asset 1logo</title><g id="Layer_2" data-name="Layer 2"><g id="Layer_1-2" data-name="Layer 1"><path class="cls-1" d="M328,131.68c-.16-.3-.32-.59-.49-.88s-.15-.28-.23-.42l-64.66-112-.25-.42c-.12-.21-.25-.42-.38-.63A36.78,36.78,0,0,0,230.75,0H101.43A36.77,36.77,0,0,0,69.59,18.39l-64.66,112a36.76,36.76,0,0,0,0,36.77l64.66,112a36.76,36.76,0,0,0,31.84,18.38H230.75a36.78,36.78,0,0,0,30.56-16.3l.57-.89c.16-.26.32-.52.47-.78s.17-.27.25-.41l64.66-112,.23-.41c.15-.25.29-.51.43-.77A36.8,36.8,0,0,0,328,131.68ZM98.07,213.77,87.33,220,45,146.61,87.33,73.25l10.74,6.2L59.29,146.61Zm127.24-51.84a25,25,0,0,1-14.25,12c.49,4.54.72,11.13-2.47,16.88a65.12,65.12,0,0,1-5.9,7.49v77.27l-36.07-37.88-36.07,37.88V199.78a26.57,26.57,0,0,1-5.92-6.84,5.38,5.38,0,0,1-1.83-3.68A34,34,0,0,1,121,173.91c-8.45-3.11-14.89-10.95-17.26-21-2.34-9.37,1.53-20.27,9.64-27.13a35,35,0,0,1,7.6-4.73c-2.3-12.11,4.57-25.21,15.73-29.9a26.47,26.47,0,0,1,11.78-2.72A27.85,27.85,0,0,1,166,94.62,38,38,0,0,1,174.25,90a30,30,0,0,1,29.53,7.21l.6.6A28.55,28.55,0,0,1,211.07,121a28,28,0,0,1,17.25,19.8C230.22,150.37,228.66,155.79,225.31,161.93Zm21.48,58-10.73-6.2,38.77-67.16L236.06,79.45l10.73-6.2,42.35,73.36Z"/><path class="cls-2" d="M184.5,206.8a29,29,0,0,1-17.9-6.49l-5.19,3.46a29,29,0,0,1-12.12,2.62,30.3,30.3,0,0,1-6.23-.66v38.52l23.55-24.14,23.55,24.14V206A22.41,22.41,0,0,1,184.5,206.8Z"/><path class="cls-3" d="M203.55,132.27l-9.37-.62,3.76-8.15a16.46,16.46,0,0,0-2.35-17,18.82,18.82,0,0,0-12.3-4.75,16.24,16.24,0,0,0-4.67.68,14.87,14.87,0,0,0-7.6,5.26l-4.41,6.93-5-7.54a15.76,15.76,0,0,0-12.78-6.52,14.23,14.23,0,0,0-5.93,1.26c-7.4,3.41-11.15,12.8-8.19,20.49l3.13,7.5-8.13,1.25a15.44,15.44,0,0,0-8.18,4.09c-4.69,3.53-7,9.39-5.88,14.63,1.78,7.7,7.17,12.88,13.42,12.88l8.77.63-3.13,8.13c-1.75,5.26-2.37,9.35,0,13.46l.62,1.84A16.27,16.27,0,0,0,148.93,194h0a16.16,16.16,0,0,0,6.82-1.5,16.43,16.43,0,0,0,5.85-5.27l5.62-6.87,5,6.87A15.76,15.76,0,0,0,185,193.77a14.23,14.23,0,0,0,5.93-1.26c2.86-1.43,4.57-3.67,6.39-6,.41-.53.82-1.08,1.26-1.62a15.57,15.57,0,0,0,.55-13.41l-5-8.77h10.06c2.92,0,8.54-1.35,11.06-6.39C217.69,152,218.12,149,217,144A15.51,15.51,0,0,0,203.55,132.27Z"/></g></g></svg>